<svg xmlns="http://www.w3.org/2000/svg" viewBox="0 0 903.94 229"><defs><style>.cls-1{fill:#563d7c;}.cls-2{isolation:isolate;}.cls-3{fill:#fff;}</style></defs><g id="Layer_2" data-name="Layer 2"><g id="Layer_1-2" data-name="Layer 1"><g id="solid"><path id="bg" class="cls-1" d="M190.86,229H38.14A38.25,38.25,0,0,1,0,190.86V38.14A38.25,38.25,0,0,1,38.14,0H190.86A38.25,38.25,0,0,1,229,38.14V190.86A38.25,38.25,0,0,1,190.86,229Z"/><g id="B" class="cls-2"><path class="cls-3" d="M62,50h64.54q17.85,0,28.64,8.2T166,83a29.68,29.68,0,0,1-4.91,17.21A31.55,31.55,0,0,1,147,111.28v.38c8.18,1.75,14.4,5.62,18.6,11.62s6.32,13.56,6.32,22.65a38,38,0,0,1-2.79,14.61,29.53,29.53,0,0,1-8.74,11.73,44.39,44.39,0,0,1-15.25,7.82A74.58,74.58,0,0,1,123,183H62V50Zm24,56h38.28c5.62,0,10.32-1.58,14.07-4.8S144,93.39,144,87.39q0-10.14-5.07-14.26c-3.38-2.74-8.25-4.13-14.63-4.13H86v37Zm0,58h41.59c7.15,0,12.72-1.84,16.63-5.57s5.95-9,5.95-15.73-2-11.74-5.95-15.36S134.74,122,127.59,122H86Z"/></g></g><path class="cls-1" d="M279,165V58h40.14q12.27,0,19.67,3.25a25.29,25.29,0,0,1,11.61,10,26.34,26.34,0,0,1,4.2,14.12,24.3,24.3,0,0,1-3.73,12.92,26.56,26.56,0,0,1-11.24,9.78q9.71,2.85,14.93,9.71A26,26,0,0,1,359.8,134a31.24,31.24,0,0,1-3.18,14,27.1,27.1,0,0,1-7.84,10,32.67,32.67,0,0,1-11.72,5.29A71.31,71.31,0,0,1,319.8,165Zm14-63h22.9q9.32,0,13.36-1.23a14.89,14.89,0,0,0,8.06-5.27,15.24,15.24,0,0,0,2.7-9.25A17.07,17.07,0,0,0,337.5,77a12.85,12.85,0,0,0-7.23-5.49Q325.58,70,314.16,70H293Zm0,50h26.8a62.14,62.14,0,0,0,9.69-.51,23.32,23.32,0,0,0,8.22-2.94,15.59,15.59,0,0,0,5.43-6,18.73,18.73,0,0,0,2.13-9.07A17.92,17.92,0,0,0,342.19,123a16.29,16.29,0,0,0-8.56-6.24q-5.46-1.8-15.74-1.8H293Z"/><path class="cls-1" d="M372.94,126.08q0-21.6,12-32,10-8.65,24.46-8.65,16.05,0,26.22,10.51t10.18,29q0,15-4.5,23.62A31.82,31.82,0,0,1,428.2,162a38.22,38.22,0,0,1-18.79,4.76q-16.34,0-26.4-10.47T372.94,126.08Zm13.55,0q0,14.94,6.52,22.38a21.71,21.71,0,0,0,32.74,0q6.51-7.47,6.51-22.78,0-14.43-6.55-21.86a21.74,21.74,0,0,0-32.7,0Q386.49,111.15,386.49,126.08Z"/><path class="cls-1" d="M456.36,126.08q0-21.6,12-32,10-8.65,24.47-8.65,16,0,26.22,10.51t10.18,29q0,15-4.51,23.62A31.82,31.82,0,0,1,511.62,162a38.21,38.21,0,0,1-18.78,4.76q-16.33,0-26.41-10.47T456.36,126.08Zm13.55,0q0,14.94,6.52,22.38a21.71,21.71,0,0,0,32.74,0q6.51-7.47,6.52-22.78,0-14.43-6.56-21.86a21.74,21.74,0,0,0-32.7,0Q469.91,111.15,469.91,126.08Z"/><path class="cls-1" d="M573.15,152.74,575,164.38a48.15,48.15,0,0,1-9.87,1.17q-7.12,0-11-2.27a12.59,12.59,0,0,1-5.52-6q-1.61-3.69-1.6-15.56V97H537V87h10V67.74l13-7.91V87h13V97H560v45.48q0,5.64.69,7.25a5.49,5.49,0,0,0,2.25,2.57,8.69,8.69,0,0,0,4.47.95A42.56,42.56,0,0,0,573.15,152.74Z"/><path class="cls-1" d="M581.09,141.76l13-2q1.1,7.83,6.12,12t14,4.17q9.09,0,13.48-3.7a11,11,0,0,0,4.39-8.68,8,8,0,0,0-3.88-7q-2.71-1.75-13.48-4.47-14.49-3.66-20.1-6.33a19.18,19.18,0,0,1-11.39-17.84,20,20,0,0,1,2.38-9.63,21.51,21.51,0,0,1,6.48-7.36A27.28,27.28,0,0,1,600.54,87a39.84,39.84,0,0,1,11.39-1.58A44.93,44.93,0,0,1,628,88.07q6.93,2.64,10.22,7.14t4.54,12.05L629.87,109a14.07,14.07,0,0,0-5.09-9.38q-4.21-3.36-11.9-3.37c-6,0-10.38,1-13,3s-3.89,4.34-3.89,7a7.24,7.24,0,0,0,1.62,4.61,11.55,11.55,0,0,0,5.05,3.52q2,.72,11.64,3.37,14,3.73,19.52,6.11a19.86,19.86,0,0,1,8.68,6.92,19.33,19.33,0,0,1,3.15,11.28,22.15,22.15,0,0,1-3.84,12.42,25,25,0,0,1-11.1,9,40.44,40.44,0,0,1-16.41,3.18q-15.15,0-23.1-6.3T581.09,141.76Z"/><path class="cls-1" d="M690.15,152.74,692,164.38a48.15,48.15,0,0,1-9.87,1.17q-7.12,0-11-2.27a12.59,12.59,0,0,1-5.52-6q-1.61-3.69-1.6-15.56V97H654V87h10V67.74l13-7.91V87h13V97H677v45.48q0,5.64.69,7.25a5.49,5.49,0,0,0,2.25,2.57,8.69,8.69,0,0,0,4.47.95A42.56,42.56,0,0,0,690.15,152.74Z"/><path class="cls-1" d="M703,165V87h12V99c2.79-5.52,5.58-9.15,8.15-10.91a14.61,14.61,0,0,1,8.46-2.64,25.75,25.75,0,0,1,13.55,4.25l-4.55,12.23A18.87,18.87,0,0,0,731,99.06a12.52,12.52,0,0,0-7.77,2.6,14,14,0,0,0-4.9,7.21c-1.47,4.69-2.28,15.38-2.28,15.38V165Z"/><path class="cls-1" d="M803.77,155.41a48.78,48.78,0,0,1-14.1,8.78,40.73,40.73,0,0,1-14.54,2.57q-12.81,0-19.7-6.26a20.69,20.69,0,0,1-6.89-16,21.33,21.33,0,0,1,2.6-10.44,21.72,21.72,0,0,1,6.82-7.58,32.05,32.05,0,0,1,9.48-4.32,94.19,94.19,0,0,1,11.72-2q16-1.91,23.51-4.55c.05-1.8.07-2.95.07-3.44q0-8.06-3.73-11.35-5.06-4.47-15-4.47-9.3,0-13.73,3.26t-6.55,11.54l-12.9-1.76A32.16,32.16,0,0,1,756.6,96a25.4,25.4,0,0,1,11.65-7.83,51.68,51.68,0,0,1,17.65-2.75q10,0,16.18,2.34t9.16,5.9a20.78,20.78,0,0,1,4.1,9,74.19,74.19,0,0,1,.66,12.16v17.58q0,18.38.84,23.25a29.3,29.3,0,0,0,3.33,9.34H806.41A27.84,27.84,0,0,1,803.77,155.41ZM803,125.94q-7.18,2.93-21.53,5-8.13,1.17-11.5,2.63a11.47,11.47,0,0,0-5.2,4.29,11.66,11.66,0,0,0,2.16,15q4,3.51,11.68,3.51a27.19,27.19,0,0,0,13.55-3.33,20.51,20.51,0,0,0,8.72-9.12Q803,139.5,803,130.77Z"/><path class="cls-1" d="M837,195V87h12V97.3a23.46,23.46,0,0,1,9-8.9,26.34,26.34,0,0,1,13-3,30.72,30.72,0,0,1,17.57,5.13A31.49,31.49,0,0,1,900.06,105a52.81,52.81,0,0,1,3.88,20.48A51.9,51.9,0,0,1,899.66,147,32.56,32.56,0,0,1,870,166.73,24.92,24.92,0,0,1,858.2,164c-3.49-1.86-8.2-7-8.2-7V195Zm11.35-68.48q0,15,6.08,22.19t14.72,7.18q8.79,0,15.05-7.43t6.27-23q0-14.86-6.12-22.26t-14.61-7.4q-8.43,0-14.9,7.87T848.35,126.52Z"/></g></g></svg>